<svg width="32" height="32" viewBox="0 0 32 32" fill="none" xmlns="http://www.w3.org/2000/svg">
<path d="M27.2508 14.8125H8.96645L19.9102 5.3125C20.0852 5.15938 19.9789 4.875 19.7477 4.875H16.9821C16.8602 4.875 16.7446 4.91875 16.6539 4.99687L4.84457 15.2437C4.73641 15.3375 4.64967 15.4534 4.59022 15.5836C4.53077 15.7138 4.5 15.8553 4.5 15.9984C4.5 16.1416 4.53077 16.283 4.59022 16.4133C4.64967 16.5435 4.73641 16.6594 4.84457 16.7531L16.7227 27.0625C16.7696 27.1031 16.8258 27.125 16.8852 27.125H19.7446C19.9758 27.125 20.0821 26.8375 19.9071 26.6875L8.96645 17.1875H27.2508C27.3883 17.1875 27.5008 17.075 27.5008 16.9375V15.0625C27.5008 14.925 27.3883 14.8125 27.2508 14.8125Z" fill="#394053" fill-opacity="0.4"/>
</svg>
