<svg width="22" height="15" viewBox="0 0 22 15" fill="none" xmlns="http://www.w3.org/2000/svg">
<path d="M20.35 11.75H19.8C19.8 13.5098 18.3219 14.9375 16.5 14.9375C14.6472 14.9375 13.2 13.5098 13.2 11.75H8.8C8.8 13.5098 7.32188 14.9375 5.5 14.9375C3.64719 14.9375 2.2 13.5098 2.2 11.75H1.65C0.738719 11.75 0 11.0361 0 10.1562V2.45312C0 1.13297 1.10825 0.0625 2.475 0.0625H15.9878C16.6066 0.0625 17.2528 0.339414 17.6722 0.818867L21.4534 5.19238C21.8178 5.54434 22 6.05898 22 6.56035V10.1562C22 11.0361 21.2609 11.75 20.35 11.75ZM2.2 5.375H5.5V2.1875H2.475C2.32306 2.1875 2.2 2.30637 2.2 2.45312V5.375ZM18.7378 5.375L15.9878 2.1875H13.2V5.375H18.7378ZM11 5.375V2.1875H7.7V5.375H11ZM16.5 10.1562C15.5891 10.1562 14.85 10.8701 14.85 11.75C14.85 12.6299 15.5891 13.3438 16.5 13.3438C17.4109 13.3438 18.15 12.6299 18.15 11.75C18.15 10.8701 17.4109 10.1562 16.5 10.1562ZM5.5 13.3438C6.41094 13.3438 7.15 12.6299 7.15 11.75C7.15 10.8701 6.41094 10.1562 5.5 10.1562C4.58906 10.1562 3.85 10.8701 3.85 11.75C3.85 12.6299 4.58906 13.3438 5.5 13.3438Z" fill="#6FCF97"/>
</svg>
