<svg width="22" height="22" viewBox="0 0 22 22" fill="none" xmlns="http://www.w3.org/2000/svg">
<path d="M4.125 13.0625C3.57799 13.0625 3.05339 12.8452 2.66659 12.4584C2.2798 12.0716 2.0625 11.547 2.0625 11C2.0625 10.453 2.2798 9.92839 2.66659 9.54159C3.05339 9.1548 3.57799 8.9375 4.125 8.9375C4.67201 8.9375 5.19661 9.1548 5.58341 9.54159C5.9702 9.92839 6.1875 10.453 6.1875 11C6.1875 11.547 5.9702 12.0716 5.58341 12.4584C5.19661 12.8452 4.67201 13.0625 4.125 13.0625ZM11 13.0625C10.453 13.0625 9.92839 12.8452 9.54159 12.4584C9.1548 12.0716 8.9375 11.547 8.9375 11C8.9375 10.453 9.1548 9.92839 9.54159 9.54159C9.92839 9.1548 10.453 8.9375 11 8.9375C11.547 8.9375 12.0716 9.1548 12.4584 9.54159C12.8452 9.92839 13.0625 10.453 13.0625 11C13.0625 11.547 12.8452 12.0716 12.4584 12.4584C12.0716 12.8452 11.547 13.0625 11 13.0625ZM17.875 13.0625C17.328 13.0625 16.8034 12.8452 16.4166 12.4584C16.0298 12.0716 15.8125 11.547 15.8125 11C15.8125 10.453 16.0298 9.92839 16.4166 9.54159C16.8034 9.1548 17.328 8.9375 17.875 8.9375C18.422 8.9375 18.9466 9.1548 19.3334 9.54159C19.7202 9.92839 19.9375 10.453 19.9375 11C19.9375 11.547 19.7202 12.0716 19.3334 12.4584C18.9466 12.8452 18.422 13.0625 17.875 13.0625Z" fill="#394053"/>
</svg>
