<svg width="23" height="19" viewBox="0 0 23 19" fill="none" xmlns="http://www.w3.org/2000/svg">
<path d="M20.5025 0.5H2.50028C1.25925 0.5 0.25 1.50912 0.25 2.75V16.25C0.25 17.4909 1.25925 18.5 2.50028 18.5H20.5025C21.7436 18.5 22.7528 17.4909 22.7528 16.25V2.75C22.7528 1.50912 21.7436 0.5 20.5025 0.5ZM7.80532 5C9.10036 5 10.0556 5.95512 10.0556 7.25C10.0556 8.54488 9.10036 9.5 7.80532 9.5C6.51028 9.5 5.55504 8.54488 5.55504 7.25C5.55504 5.95512 6.50916 5 7.80532 5ZM11.9852 14H3.62542V13.4769C3.62542 11.9323 5.51116 10.3438 7.80532 10.3438C10.0995 10.3438 11.9852 11.9323 11.9852 13.4769V14ZM19.3774 12.875H14.8768V10.625H19.3774V12.875ZM19.3774 8.375H13.7517V6.125H19.3774V8.375Z" fill="#6FCF97"/>
</svg>
