<svg width="18" height="18" viewBox="0 0 18 18" fill="none" xmlns="http://www.w3.org/2000/svg">
<g clip-path="url(#clip0_125_2)">
<path d="M17.8349 17.0339L12.3693 11.5349C13.388 10.3148 14.002 8.74519 14.002 7.03125C14.002 3.14803 10.8539 0 6.9707 0C3.08748 0 -0.0605469 3.14803 -0.0605469 7.03125C-0.0605469 10.9145 3.08748 14.0625 6.9707 14.0625C8.73498 14.0625 10.3465 13.4111 11.5812 12.3373L17.0392 17.8296C17.2588 18.0492 17.6152 18.0492 17.8348 17.8296C18.0542 17.6099 18.0542 17.2538 17.8348 17.0339H17.8349ZM6.9707 12.9468C3.7037 12.9468 1.05517 10.2983 1.05517 7.03125C1.05517 3.76425 3.7037 1.11572 6.9707 1.11572C10.2377 1.11572 12.8862 3.76425 12.8862 7.03125C12.8862 10.2983 10.2377 12.9468 6.9707 12.9468Z" fill="#394053"/>
</g>
<defs>
<clipPath id="clip0_125_2">
<rect width="18" height="18" fill="white"/>
</clipPath>
</defs>
</svg>
