<svg width="18" height="21" viewBox="0 0 18 21" fill="none" xmlns="http://www.w3.org/2000/svg">
<path d="M16.0714 1.3125H1.92857C0.863839 1.3125 0 2.19434 0 3.28125V17.7188C0 18.8057 0.863839 19.6875 1.92857 19.6875H16.0714C17.1362 19.6875 18 18.8057 18 17.7188V3.28125C18 2.19434 17.1362 1.3125 16.0714 1.3125ZM11.1415 17.0502C10.804 17.1117 10.6795 16.8984 10.6795 16.7221C10.6795 16.5006 10.6875 15.3686 10.6875 14.4539C10.6875 13.8141 10.4786 13.408 10.2335 13.1947C11.7201 13.0266 13.2871 12.8174 13.2871 10.1965C13.2871 9.45 13.0259 9.07676 12.6 8.59688C12.6683 8.42051 12.8973 7.69453 12.5317 6.75117C11.9732 6.5748 10.6955 7.48535 10.6955 7.48535C10.1652 7.33359 9.59063 7.25566 9.02411 7.25566C8.45759 7.25566 7.88304 7.33359 7.35268 7.48535C7.35268 7.48535 6.075 6.5748 5.51652 6.75117C5.15089 7.69043 5.37589 8.41641 5.44821 8.59688C5.02232 9.07676 4.82143 9.45 4.82143 10.1965C4.82143 12.8051 6.32009 13.0266 7.8067 13.1947C7.61384 13.3711 7.44107 13.6746 7.3808 14.1094C6.99911 14.2857 6.02277 14.5893 5.44018 13.5393C5.07455 12.8912 4.41563 12.8379 4.41563 12.8379C3.76473 12.8297 4.37143 13.2563 4.37143 13.2563C4.80536 13.4613 5.11071 14.2488 5.11071 14.2488C5.50045 15.467 7.36473 15.0568 7.36473 15.0568C7.36473 15.627 7.37277 16.5539 7.37277 16.7221C7.37277 16.8984 7.25223 17.1117 6.91071 17.0502C4.25893 16.1438 2.40268 13.568 2.40268 10.5574C2.40268 6.79219 5.22321 3.9334 8.91161 3.9334C12.6 3.9334 15.5893 6.79219 15.5893 10.5574C15.5933 13.568 13.7933 16.1479 11.1415 17.0502ZM7.2 14.5441C7.12366 14.5605 7.05134 14.5277 7.0433 14.4744C7.03527 14.4129 7.0875 14.3596 7.16384 14.3432C7.24018 14.335 7.3125 14.3678 7.32054 14.4211C7.33259 14.4744 7.28036 14.5277 7.2 14.5441ZM6.8183 14.5072C6.8183 14.5605 6.75804 14.6057 6.67768 14.6057C6.58929 14.6139 6.52902 14.5688 6.52902 14.5072C6.52902 14.4539 6.58929 14.4088 6.66964 14.4088C6.74598 14.4006 6.8183 14.4457 6.8183 14.5072ZM6.26786 14.4621C6.25179 14.5154 6.17143 14.54 6.10312 14.5154C6.02679 14.499 5.97455 14.4375 5.99063 14.3842C6.0067 14.3309 6.08705 14.3063 6.15536 14.3227C6.23571 14.3473 6.28795 14.4088 6.26786 14.4621ZM5.77366 14.2406C5.7375 14.2857 5.66116 14.2775 5.60089 14.216C5.54062 14.1627 5.52455 14.0848 5.56473 14.0479C5.60089 14.0027 5.67723 14.0109 5.7375 14.0725C5.78973 14.1258 5.80982 14.2078 5.77366 14.2406ZM5.40804 13.8674C5.37188 13.892 5.30357 13.8674 5.25937 13.8059C5.21518 13.7443 5.21518 13.6746 5.25937 13.6459C5.30357 13.609 5.37188 13.6377 5.40804 13.6992C5.45223 13.7607 5.45223 13.8346 5.40804 13.8674V13.8674ZM5.14688 13.4695C5.11071 13.5064 5.05045 13.4859 5.00625 13.4449C4.96205 13.3916 4.95402 13.3301 4.99018 13.3014C5.02634 13.2645 5.08661 13.285 5.1308 13.326C5.175 13.3793 5.18304 13.4408 5.14688 13.4695ZM4.87768 13.166C4.86161 13.2029 4.80937 13.2111 4.76518 13.1824C4.71295 13.1578 4.68884 13.1127 4.70491 13.0758C4.72098 13.0512 4.76518 13.0389 4.81741 13.0594C4.86964 13.0881 4.89375 13.1332 4.87768 13.166Z" fill="black"/>
</svg>
