<svg width="12" height="12" viewBox="0 0 12 12" fill="none" xmlns="http://www.w3.org/2000/svg">
<g clip-path="url(#clip0_121_122)">
<path d="M1.6931 1.96312V0.490723H2.67469V1.96312H4.14708V2.94471H2.67469V4.4171H1.6931V2.94471H0.220703V1.96312H1.6931ZM3.16549 4.9079V3.43551H4.63788V1.96312H8.07346L8.97162 2.94471H10.5275C11.0673 2.94471 11.509 3.38643 11.509 3.92631V9.81588C11.509 10.3558 11.0673 10.7975 10.5275 10.7975H2.67469C2.13481 10.7975 1.6931 10.3558 1.6931 9.81588V4.9079H3.16549ZM6.60107 9.32508C7.95567 9.32508 9.05506 8.22569 9.05506 6.87109C9.05506 5.51649 7.95567 4.4171 6.60107 4.4171C5.24647 4.4171 4.14708 5.51649 4.14708 6.87109C4.14708 8.22569 5.24647 9.32508 6.60107 9.32508ZM5.03052 6.87109C5.03052 7.7398 5.73236 8.44164 6.60107 8.44164C7.46978 8.44164 8.17162 7.7398 8.17162 6.87109C8.17162 6.00238 7.46978 5.30054 6.60107 5.30054C5.73236 5.30054 5.03052 6.00238 5.03052 6.87109Z" fill="#394053"/>
</g>
<defs>
<clipPath id="clip0_121_122">
<rect width="11.7791" height="11.7791" fill="white" transform="translate(0.220703)"/>
</clipPath>
</defs>
</svg>
