<svg width="24" height="24" viewBox="0 0 24 24" fill="none" xmlns="http://www.w3.org/2000/svg">
<path d="M21.2831 8.27584L15.3323 7.411L12.6722 2.01803C12.5995 1.87037 12.48 1.75084 12.3323 1.67818C11.962 1.49537 11.512 1.64771 11.3268 2.01803L8.66668 7.411L2.7159 8.27584C2.55184 8.29928 2.40184 8.37662 2.28699 8.49381C2.14815 8.63651 2.07165 8.8285 2.07428 9.02758C2.07692 9.22666 2.15849 9.41655 2.30106 9.55553L6.60653 13.7532L5.58934 19.6805C5.56549 19.8184 5.58074 19.9602 5.63338 20.0899C5.68602 20.2195 5.77394 20.3318 5.88716 20.4141C6.00038 20.4963 6.13437 20.5452 6.27395 20.5551C6.41352 20.5651 6.5531 20.5357 6.67684 20.4704L11.9995 17.6719L17.3222 20.4704C17.4675 20.5477 17.6362 20.5735 17.7979 20.5454C18.2057 20.4751 18.48 20.0883 18.4097 19.6805L17.3925 13.7532L21.6979 9.55553C21.8151 9.44068 21.8925 9.29068 21.9159 9.12662C21.9792 8.71646 21.6932 8.33678 21.2831 8.27584Z" fill="#F7C564"/>
</svg>
