<svg width="18" height="18" viewBox="0 0 18 18" fill="none" xmlns="http://www.w3.org/2000/svg">
<path d="M16.5625 3.5H13.8125V1.78125C13.8125 1.02285 13.1959 0.40625 12.4375 0.40625H5.5625C4.8041 0.40625 4.1875 1.02285 4.1875 1.78125V3.5H1.4375C1.05723 3.5 0.75 3.80723 0.75 4.1875V4.875C0.75 4.96953 0.827344 5.04688 0.921875 5.04688H2.21953L2.7502 16.2832C2.78457 17.0158 3.39043 17.5938 4.12305 17.5938H13.877C14.6117 17.5938 15.2154 17.018 15.2498 16.2832L15.7805 5.04688H17.0781C17.1727 5.04688 17.25 4.96953 17.25 4.875V4.1875C17.25 3.80723 16.9428 3.5 16.5625 3.5ZM12.2656 3.5H5.73438V1.95312H12.2656V3.5Z" fill="#EC7A7A"/>
</svg>
