<svg width="32" height="32" viewBox="0 0 32 32" fill="none" xmlns="http://www.w3.org/2000/svg">
<path d="M15.9993 2.6665C8.77135 2.6665 2.66602 8.77184 2.66602 15.9998C2.66602 23.2278 8.77135 29.3332 15.9993 29.3332C23.2274 29.3332 29.3327 23.2278 29.3327 15.9998C29.3327 8.77184 23.2274 2.6665 15.9993 2.6665ZM15.9993 9.33317C18.302 9.33317 19.9993 11.0292 19.9993 13.3332C19.9993 15.6372 18.302 17.3332 15.9993 17.3332C13.698 17.3332 11.9993 15.6372 11.9993 13.3332C11.9993 11.0292 13.698 9.33317 15.9993 9.33317ZM9.19135 22.3625C10.3873 20.6025 12.382 19.4292 14.666 19.4292H17.3327C19.618 19.4292 21.6114 20.6025 22.8074 22.3625C21.1034 24.1865 18.686 25.3332 15.9993 25.3332C13.3127 25.3332 10.8953 24.1865 9.19135 22.3625Z" fill="#6F9E52"/>
</svg>
