<svg width="18" height="18" viewBox="0 0 18 18" fill="none" xmlns="http://www.w3.org/2000/svg">
<g clip-path="url(#clip0_565_110)">
<path d="M15.3369 15.3371H12.6698V11.1603C12.6698 10.1643 12.652 8.8822 11.2827 8.8822C9.89361 8.8822 9.68105 9.9674 9.68105 11.0878V15.3368H7.0141V6.74772H9.57439V7.92152H9.61025C9.86647 7.4834 10.2367 7.12299 10.6816 6.87865C11.1264 6.63432 11.6292 6.51522 12.1364 6.53404C14.8396 6.53404 15.338 8.3121 15.338 10.6252L15.3369 15.3371V15.3371ZM4.00472 5.57371C3.14993 5.57386 2.45686 4.881 2.45672 4.02621C2.45658 3.17142 3.14937 2.47835 4.00416 2.47821C4.85895 2.478 5.55202 3.17086 5.55216 4.02564C5.55223 4.43613 5.38924 4.82984 5.09905 5.12015C4.80885 5.41047 4.41521 5.57362 4.00472 5.57371V5.57371ZM5.33827 15.3372H2.66843V6.74772H5.3382V15.3371L5.33827 15.3372ZM16.6665 0.00131005H1.32827C0.603352 -0.00684619 0.00885938 0.573865 0 1.29879V16.7009C0.00857813 17.4262 0.603 18.0075 1.3282 17.9999H16.6665C17.3932 18.0089 17.99 17.4276 18 16.7009V1.29759C17.9897 0.571263 17.3929 -0.00937744 16.6665 0.000114742" fill="#0A66C2"/>
</g>
<defs>
<clipPath id="clip0_565_110">
<rect width="18" height="18" fill="white"/>
</clipPath>
</defs>
</svg>
